<svg width="305" height="39" viewBox="0 0 305 39" fill="none" xmlns="http://www.w3.org/2000/svg">
<path d="M17.44 3.344C19.616 3.344 21.392 3.648 22.768 4.256C24.144 4.864 25.376 5.6 26.464 6.464C26.848 6.752 27.168 6.896 27.424 6.896C28.032 6.896 28.432 5.936 28.624 4.016H29.728C29.664 5.264 29.616 6.784 29.584 8.576C29.552 10.336 29.536 12.688 29.536 15.632H28.432C28.208 13.712 27.856 12.048 27.376 10.64C26.928 9.2 26.08 7.968 24.832 6.944C24.064 6.208 23.104 5.632 21.952 5.216C20.832 4.8 19.696 4.592 18.544 4.592C16.784 4.592 15.28 5.056 14.032 5.984C12.784 6.88 11.76 8.112 10.96 9.68C10.16 11.248 9.568 13.024 9.184 15.008C8.8 16.96 8.608 18.992 8.608 21.104C8.608 26.864 9.392 31.072 10.96 33.728C12.56 36.384 14.848 37.712 17.824 37.712C18.592 37.712 19.264 37.616 19.84 37.424C20.416 37.232 20.88 37.008 21.232 36.752C21.68 36.432 21.984 36.096 22.144 35.744C22.304 35.36 22.384 34.864 22.384 34.256V29.552C22.384 28.08 22.256 26.992 22 26.288C21.776 25.552 21.312 25.056 20.608 24.8C19.904 24.544 18.88 24.4 17.536 24.368V23.408C18.208 23.44 19.008 23.472 19.936 23.504C20.896 23.504 21.888 23.52 22.912 23.552C23.936 23.552 24.88 23.552 25.744 23.552C27.088 23.552 28.32 23.536 29.44 23.504C30.56 23.472 31.472 23.44 32.176 23.408V24.368C31.568 24.4 31.104 24.512 30.784 24.704C30.496 24.896 30.288 25.28 30.16 25.856C30.064 26.432 30.016 27.312 30.016 28.496V38H29.056C29.024 37.456 28.896 36.864 28.672 36.224C28.48 35.584 28.144 35.264 27.664 35.264C27.44 35.264 27.136 35.328 26.752 35.456C26.4 35.552 25.84 35.824 25.072 36.272C23.888 36.944 22.64 37.52 21.328 38C20.016 38.448 18.64 38.672 17.2 38.672C13.488 38.672 10.352 37.984 7.792 36.608C5.232 35.232 3.296 33.264 1.984 30.704C0.704 28.112 0.0640001 25.008 0.0640001 21.392C0.0640001 17.744 0.8 14.576 2.272 11.888C3.776 9.2 5.824 7.104 8.416 5.6C11.04 4.096 14.048 3.344 17.44 3.344ZM40.9791 38.336C39.5391 38.336 38.3391 38.064 37.3791 37.52C36.4191 36.976 35.7151 36.256 35.2671 35.36C34.8191 34.432 34.5951 33.424 34.5951 32.336C34.5951 30.96 34.8991 29.84 35.5071 28.976C36.1471 28.112 36.9631 27.408 37.9551 26.864C38.9471 26.32 39.9871 25.872 41.0751 25.52C42.1951 25.168 43.2511 24.832 44.2431 24.512C45.2671 24.16 46.0831 23.76 46.6911 23.312C47.3311 22.832 47.6511 22.224 47.6511 21.488V17.744C47.6511 16.912 47.5071 16.176 47.2191 15.536C46.9631 14.864 46.5471 14.352 45.9711 14C45.4271 13.648 44.7071 13.472 43.8111 13.472C43.1711 13.472 42.5311 13.568 41.8911 13.76C41.2511 13.92 40.7231 14.208 40.3071 14.624C41.2031 14.944 41.8911 15.44 42.3711 16.112C42.8831 16.752 43.1391 17.488 43.1391 18.32C43.1391 19.408 42.7551 20.272 41.9871 20.912C41.2511 21.552 40.3711 21.872 39.3471 21.872C38.1951 21.872 37.3151 21.52 36.7071 20.816C36.1311 20.08 35.8431 19.2 35.8431 18.176C35.8431 17.248 36.0671 16.48 36.5151 15.872C36.9951 15.264 37.6511 14.688 38.4831 14.144C39.3791 13.632 40.4511 13.232 41.6991 12.944C42.9791 12.656 44.3551 12.512 45.8271 12.512C47.2991 12.512 48.6271 12.672 49.8111 12.992C50.9951 13.28 51.9871 13.824 52.7871 14.624C53.5231 15.36 54.0031 16.272 54.2271 17.36C54.4511 18.416 54.5631 19.76 54.5631 21.392V34.448C54.5631 35.248 54.6431 35.808 54.8031 36.128C54.9631 36.416 55.2351 36.56 55.6191 36.56C55.9071 36.56 56.1791 36.48 56.4351 36.32C56.7231 36.16 57.0271 35.968 57.3471 35.744L57.8271 36.56C57.1551 37.136 56.3711 37.584 55.4751 37.904C54.6111 38.192 53.6351 38.336 52.5471 38.336C51.3631 38.336 50.4191 38.176 49.7151 37.856C49.0111 37.504 48.4991 37.04 48.1791 36.464C47.8911 35.888 47.7471 35.216 47.7471 34.448C46.9791 35.664 46.0511 36.624 44.9631 37.328C43.8751 38 42.5471 38.336 40.9791 38.336ZM44.3871 35.264C45.0271 35.264 45.6031 35.12 46.1151 34.832C46.6591 34.512 47.1711 34 47.6511 33.296V23.456C47.3631 23.936 46.9631 24.368 46.4511 24.752C45.9391 25.136 45.3951 25.536 44.8191 25.952C44.2431 26.336 43.6831 26.768 43.1391 27.248C42.6271 27.728 42.2111 28.32 41.8911 29.024C41.5711 29.728 41.4111 30.576 41.4111 31.568C41.4111 32.816 41.6831 33.744 42.2271 34.352C42.7711 34.96 43.4911 35.264 44.3871 35.264ZM75.6629 12.512C78.1589 12.512 80.2229 13.536 81.8549 15.584C83.5189 17.6 84.3509 20.72 84.3509 24.944C84.3509 28.272 83.8389 30.944 82.8149 32.96C81.8229 34.976 80.4949 36.432 78.8309 37.328C77.1669 38.224 75.3429 38.672 73.3589 38.672C72.0469 38.672 70.8309 38.448 69.7109 38C68.5909 37.552 67.6309 36.816 66.8309 35.792L67.5029 35.552C68.0789 36.256 68.7509 36.784 69.5189 37.136C70.3189 37.488 71.1029 37.664 71.8709 37.664C73.6309 37.664 74.9429 36.672 75.8069 34.688C76.6709 32.704 77.1029 29.68 77.1029 25.616C77.1029 22.864 76.9269 20.688 76.5749 19.088C76.2549 17.456 75.7749 16.304 75.1349 15.632C74.4949 14.928 73.7269 14.576 72.8309 14.576C71.7109 14.576 70.6869 15.04 69.7589 15.968C68.8309 16.864 68.3029 18.128 68.1749 19.76L67.9349 18.08C68.5109 16.256 69.4869 14.88 70.8629 13.952C72.2389 12.992 73.8389 12.512 75.6629 12.512ZM68.3189 0.463997V37.04C67.5189 36.912 66.7029 36.912 65.8709 37.04C65.0389 37.168 64.2709 37.392 63.5669 37.712C62.8629 38 62.2709 38.352 61.7909 38.768L61.0709 38.336C61.1989 37.888 61.2789 37.44 61.3109 36.992C61.3749 36.544 61.4069 36.096 61.4069 35.648V6.224C61.4069 4.784 61.1829 3.728 60.7349 3.056C60.3189 2.352 59.5189 2 58.3349 2V0.991999C59.3589 1.088 60.3509 1.136 61.3109 1.136C62.6229 1.136 63.8709 1.088 65.0549 0.991999C66.2389 0.863998 67.3269 0.687998 68.3189 0.463997ZM103.836 12.512C104.86 12.512 105.692 12.736 106.332 13.184C106.972 13.6 107.436 14.144 107.724 14.816C108.044 15.488 108.204 16.192 108.204 16.928C108.204 18.112 107.852 19.088 107.148 19.856C106.476 20.592 105.58 20.96 104.46 20.96C103.34 20.96 102.46 20.688 101.82 20.144C101.212 19.568 100.908 18.816 100.908 17.888C100.908 16.992 101.1 16.256 101.484 15.68C101.9 15.072 102.412 14.56 103.02 14.144C102.572 14.016 102.124 14.032 101.676 14.192C101.068 14.288 100.492 14.544 99.9479 14.96C99.4039 15.344 98.9399 15.84 98.5559 16.448C98.1719 17.024 97.8679 17.664 97.6439 18.368C97.4199 19.04 97.3079 19.696 97.3079 20.336V33.056C97.3079 34.592 97.6759 35.632 98.4119 36.176C99.1799 36.72 100.316 36.992 101.82 36.992V38C101.084 37.968 100.012 37.936 98.6039 37.904C97.1959 37.84 95.7239 37.808 94.1879 37.808C92.9079 37.808 91.6119 37.84 90.2999 37.904C88.9879 37.936 87.9959 37.968 87.3239 38V36.992C88.4439 36.992 89.2279 36.752 89.6759 36.272C90.1559 35.792 90.3959 34.88 90.3959 33.536V18.416C90.3959 16.976 90.1719 15.92 89.7239 15.248C89.3079 14.544 88.5079 14.192 87.3239 14.192V13.184C88.3479 13.28 89.3399 13.328 90.2999 13.328C91.6439 13.328 92.8919 13.28 94.0439 13.184C95.2279 13.056 96.3159 12.88 97.3079 12.656V17.12C97.6919 16.256 98.2039 15.472 98.8439 14.768C99.4839 14.064 100.22 13.52 101.052 13.136C101.884 12.72 102.812 12.512 103.836 12.512ZM115.97 0.799998C117.314 0.799998 118.37 1.136 119.138 1.808C119.938 2.448 120.338 3.344 120.338 4.496C120.338 5.648 119.938 6.56 119.138 7.232C118.37 7.872 117.314 8.192 115.97 8.192C114.626 8.192 113.554 7.872 112.754 7.232C111.986 6.56 111.602 5.648 111.602 4.496C111.602 3.344 111.986 2.448 112.754 1.808C113.554 1.136 114.626 0.799998 115.97 0.799998ZM119.714 12.656V33.536C119.714 34.88 119.938 35.792 120.386 36.272C120.866 36.752 121.666 36.992 122.786 36.992V38C122.21 37.968 121.314 37.936 120.098 37.904C118.882 37.84 117.65 37.808 116.402 37.808C115.154 37.808 113.89 37.84 112.61 37.904C111.33 37.936 110.37 37.968 109.73 38V36.992C110.85 36.992 111.634 36.752 112.082 36.272C112.562 35.792 112.802 34.88 112.802 33.536V18.416C112.802 16.976 112.578 15.92 112.13 15.248C111.714 14.544 110.914 14.192 109.73 14.192V13.184C110.754 13.28 111.746 13.328 112.706 13.328C114.05 13.328 115.298 13.28 116.45 13.184C117.634 13.056 118.722 12.88 119.714 12.656ZM137.255 12.512C140.071 12.512 142.279 13.344 143.879 15.008C145.479 16.672 146.279 19.392 146.279 23.168H130.487L130.391 22.256H140.231C140.263 20.688 140.167 19.248 139.943 17.936C139.719 16.592 139.367 15.52 138.887 14.72C138.407 13.92 137.767 13.52 136.967 13.52C135.847 13.52 134.887 14.224 134.087 15.632C133.319 17.04 132.855 19.376 132.695 22.64L132.839 22.928C132.807 23.312 132.775 23.712 132.743 24.128C132.743 24.544 132.743 24.976 132.743 25.424C132.743 27.632 133.047 29.424 133.655 30.8C134.295 32.176 135.095 33.184 136.055 33.824C137.015 34.432 137.991 34.736 138.983 34.736C139.655 34.736 140.343 34.64 141.047 34.448C141.783 34.224 142.519 33.84 143.255 33.296C143.991 32.72 144.679 31.92 145.319 30.896L146.183 31.184C145.799 32.4 145.191 33.584 144.359 34.736C143.527 35.888 142.471 36.832 141.191 37.568C139.911 38.304 138.375 38.672 136.583 38.672C134.407 38.672 132.487 38.208 130.823 37.28C129.159 36.352 127.847 34.944 126.887 33.056C125.959 31.168 125.495 28.768 125.495 25.856C125.495 22.88 125.991 20.4 126.983 18.416C128.007 16.432 129.399 14.96 131.159 14C132.951 13.008 134.983 12.512 137.255 12.512ZM158.85 0.415998V33.536C158.85 34.88 159.074 35.792 159.522 36.272C160.002 36.752 160.802 36.992 161.922 36.992V38C161.314 37.968 160.402 37.936 159.186 37.904C157.97 37.84 156.738 37.808 155.49 37.808C154.242 37.808 152.978 37.84 151.698 37.904C150.45 37.936 149.506 37.968 148.866 38V36.992C149.986 36.992 150.77 36.752 151.218 36.272C151.698 35.792 151.938 34.88 151.938 33.536V6.176C151.938 4.736 151.714 3.68 151.266 3.008C150.85 2.304 150.05 1.952 148.866 1.952V0.943999C149.89 1.04 150.882 1.088 151.842 1.088C153.154 1.088 154.402 1.04 155.586 0.943999C156.77 0.815999 157.858 0.639998 158.85 0.415998ZM190.48 4.016C196.784 4.016 201.472 5.456 204.544 8.336C207.616 11.184 209.152 15.28 209.152 20.624C209.152 24.112 208.4 27.168 206.896 29.792C205.392 32.384 203.2 34.4 200.32 35.84C197.472 37.28 194.048 38 190.048 38C189.536 38 188.864 37.984 188.032 37.952C187.2 37.92 186.336 37.904 185.44 37.904C184.544 37.872 183.744 37.856 183.04 37.856C181.632 37.856 180.24 37.872 178.864 37.904C177.52 37.904 176.448 37.936 175.648 38V37.04C176.672 36.976 177.44 36.848 177.952 36.656C178.464 36.464 178.8 36.08 178.96 35.504C179.152 34.928 179.248 34.064 179.248 32.912V9.104C179.248 7.92 179.152 7.056 178.96 6.512C178.8 5.936 178.448 5.552 177.904 5.36C177.392 5.136 176.64 5.008 175.648 4.976V4.016C176.448 4.048 177.52 4.096 178.864 4.16C180.24 4.192 181.6 4.192 182.944 4.16C184.096 4.128 185.392 4.096 186.832 4.064C188.304 4.032 189.52 4.016 190.48 4.016ZM190.432 4.88C188.96 4.88 188 5.152 187.552 5.696C187.104 6.24 186.88 7.344 186.88 9.008V33.008C186.88 34.672 187.104 35.776 187.552 36.32C188.032 36.864 189.008 37.136 190.48 37.136C193.168 37.136 195.28 36.512 196.816 35.264C198.384 33.984 199.504 32.128 200.176 29.696C200.848 27.264 201.184 24.304 201.184 20.816C201.184 17.232 200.816 14.272 200.08 11.936C199.376 9.568 198.24 7.808 196.672 6.656C195.104 5.472 193.024 4.88 190.432 4.88ZM218.673 0.799998C220.017 0.799998 221.073 1.136 221.841 1.808C222.641 2.448 223.041 3.344 223.041 4.496C223.041 5.648 222.641 6.56 221.841 7.232C221.073 7.872 220.017 8.192 218.673 8.192C217.329 8.192 216.257 7.872 215.457 7.232C214.689 6.56 214.305 5.648 214.305 4.496C214.305 3.344 214.689 2.448 215.457 1.808C216.257 1.136 217.329 0.799998 218.673 0.799998ZM222.417 12.656V33.536C222.417 34.88 222.641 35.792 223.089 36.272C223.569 36.752 224.369 36.992 225.489 36.992V38C224.913 37.968 224.017 37.936 222.801 37.904C221.585 37.84 220.353 37.808 219.105 37.808C217.857 37.808 216.593 37.84 215.313 37.904C214.033 37.936 213.073 37.968 212.433 38V36.992C213.553 36.992 214.337 36.752 214.785 36.272C215.265 35.792 215.505 34.88 215.505 33.536V18.416C215.505 16.976 215.281 15.92 214.833 15.248C214.417 14.544 213.617 14.192 212.433 14.192V13.184C213.457 13.28 214.449 13.328 215.409 13.328C216.753 13.328 218.001 13.28 219.153 13.184C220.337 13.056 221.425 12.88 222.417 12.656ZM237.318 5.312V13.184H242.982V14.144H237.318V33.536C237.318 34.496 237.494 35.184 237.846 35.6C238.198 35.984 238.726 36.176 239.43 36.176C240.006 36.176 240.582 35.968 241.158 35.552C241.734 35.104 242.246 34.352 242.694 33.296L243.51 33.728C242.998 35.168 242.214 36.352 241.158 37.28C240.134 38.208 238.726 38.672 236.934 38.672C235.878 38.672 234.95 38.528 234.15 38.24C233.35 37.984 232.678 37.584 232.134 37.04C231.43 36.336 230.966 35.472 230.742 34.448C230.518 33.392 230.406 32.032 230.406 30.368V14.144H226.374V13.184H230.406V6.848C231.75 6.848 232.982 6.736 234.102 6.512C235.254 6.256 236.326 5.856 237.318 5.312ZM264.609 12.944L252.609 37.28H255.105C256.353 37.28 257.521 37.024 258.609 36.512C259.729 35.968 260.657 35.072 261.393 33.824C262.161 32.576 262.625 30.864 262.785 28.688H263.793C263.793 31.024 263.809 32.944 263.841 34.448C263.873 35.92 263.921 37.168 263.985 38.192C262.545 38.128 261.041 38.08 259.473 38.048C257.905 38.016 256.337 38 254.769 38C253.137 38 251.457 38.016 249.729 38.048C248.001 38.112 246.353 38.176 244.785 38.24L256.785 13.904H254.097C252.817 13.904 251.633 14.176 250.545 14.72C249.489 15.232 248.609 16.128 247.905 17.408C247.233 18.656 246.801 20.352 246.609 22.496H245.601C245.601 20.128 245.585 18.208 245.553 16.736C245.521 15.264 245.473 14.016 245.409 12.992C246.881 13.056 248.401 13.104 249.969 13.136C251.537 13.168 253.089 13.184 254.625 13.184C256.289 13.184 257.969 13.168 259.665 13.136C261.393 13.072 263.041 13.008 264.609 12.944ZM279.567 12.512C282.383 12.512 284.591 13.344 286.191 15.008C287.791 16.672 288.591 19.392 288.591 23.168H272.799L272.703 22.256H282.543C282.575 20.688 282.479 19.248 282.255 17.936C282.031 16.592 281.679 15.52 281.199 14.72C280.719 13.92 280.079 13.52 279.279 13.52C278.159 13.52 277.199 14.224 276.399 15.632C275.631 17.04 275.167 19.376 275.007 22.64L275.151 22.928C275.119 23.312 275.087 23.712 275.055 24.128C275.055 24.544 275.055 24.976 275.055 25.424C275.055 27.632 275.359 29.424 275.967 30.8C276.607 32.176 277.407 33.184 278.367 33.824C279.327 34.432 280.303 34.736 281.295 34.736C281.967 34.736 282.655 34.64 283.359 34.448C284.095 34.224 284.831 33.84 285.567 33.296C286.303 32.72 286.991 31.92 287.631 30.896L288.495 31.184C288.111 32.4 287.503 33.584 286.671 34.736C285.839 35.888 284.783 36.832 283.503 37.568C282.223 38.304 280.687 38.672 278.895 38.672C276.719 38.672 274.799 38.208 273.135 37.28C271.471 36.352 270.159 34.944 269.199 33.056C268.271 31.168 267.807 28.768 267.807 25.856C267.807 22.88 268.303 20.4 269.295 18.416C270.319 16.432 271.711 14.96 273.471 14C275.263 13.008 277.295 12.512 279.567 12.512ZM301.163 0.415998V33.536C301.163 34.88 301.387 35.792 301.835 36.272C302.315 36.752 303.115 36.992 304.235 36.992V38C303.627 37.968 302.715 37.936 301.499 37.904C300.283 37.84 299.051 37.808 297.803 37.808C296.555 37.808 295.291 37.84 294.011 37.904C292.763 37.936 291.819 37.968 291.179 38V36.992C292.299 36.992 293.083 36.752 293.531 36.272C294.011 35.792 294.251 34.88 294.251 33.536V6.176C294.251 4.736 294.027 3.68 293.579 3.008C293.163 2.304 292.363 1.952 291.179 1.952V0.943999C292.203 1.04 293.195 1.088 294.155 1.088C295.467 1.088 296.715 1.04 297.899 0.943999C299.083 0.815999 300.171 0.639998 301.163 0.415998Z" fill="#141414"/>
</svg>
